<?xml version="1.0" encoding="UTF-8"?>
<svg id="Layer_1" data-name="Layer 1" xmlns="http://www.w3.org/2000/svg" viewBox="0 0 11652.32 5493.33">
  <defs>
    <style>
      .cls-1 {
        fill: #fff;
      }
    </style>
  </defs>
  <path class="cls-1" d="M6461.27,3676.75c-140.11,0-270.95-70.02-348.67-186.6l-.58-.87L3798.17,0h999.18l1663.94,2509.25L7866.06,390.86c153.62-231.65,413.08-370.92,691.04-370.92h2821.36v832.7h-2819.46l-1748.44,2636.64c-76.32,116.15-206.48,186.78-347.18,187.47h-2.11ZM6117.53,3027.66c-.63.95-1.28,1.92-1.91,2.88l1.91-2.88Z"/>
  <path class="cls-1" d="M5425.72,3676.52L3165.76,268.72c-100.95-152.17-270.28-243.01-452.9-243.01s-351.95,90.84-452.99,243.14L0,3676.52h1284.77l1428.09-2153.57,874.23,1318.36h-1019.43l-552.18,832.69h1377.78s285.25.01,285.25.01h460.77l1.67,2.52h1284.76Z"/>
  <path class="cls-1" d="M10588.87,3674.01h-3094.82s479.45-713.74,479.45-713.74h2190.65c193.14,0,349.71-156.57,349.71-349.71h0c0-193.14-156.57-349.71-349.71-349.71h-1726.74l473.21-713.74h1678.26c587.33,0,1063.45,476.12,1063.45,1063.45h0c0,587.33-476.12,1063.45-1063.45,1063.45Z"/>
  <g>
    <path class="cls-1" d="M617.15,4693.36c59.43,0,93.71,17.15,131.42,86.86l378.27,686.83c8,16.01,4.58,26.29-13.71,26.29h-145.14c-14.85,0-21.71-3.43-26.28-13.72l-75.43-139.41H318.87l-74.28,139.41c-5.72,10.29-11.43,13.72-26.29,13.72H68.6c-18.29,0-21.71-10.28-13.71-26.29l374.84-686.83c36.57-69.71,71.99-86.86,119.99-86.86h67.42ZM785.14,5191.63l-177.13-327.99c-3.43-5.72-7.99-7.99-13.71-7.99h-6.85c-5.72,0-9.15,2.28-12.58,7.99l-175.98,327.99h386.26Z"/>
    <path class="cls-1" d="M1325.71,4693.36c17.15,0,25.14,8,25.14,25.15v455.98c0,121.14,34.29,156.57,152,156.57h316.56c117.71,0,150.86-35.43,150.86-156.57v-455.98c0-17.15,9.14-25.15,25.14-25.15h124.57c17.13,0,25.14,8,25.14,25.15v473.12c0,219.42-88,301.7-319.99,301.7h-327.99c-231.99,0-319.99-82.28-319.99-301.7v-473.12c0-17.15,8-25.15,25.15-25.15h123.42Z"/>
    <path class="cls-1" d="M3164.5,4693.36c17.15,0,26.29,8,26.29,25.15v112c0,17.13-9.14,25.14-26.29,25.14h-359.98v612.55c0,17.13-6.85,25.14-24,25.14h-124.57c-16,0-25.14-8-25.14-25.14v-612.55h-359.98c-16,0-25.14-8-25.14-25.14v-112c0-17.15,9.14-25.15,25.14-25.15h893.68Z"/>
    <path class="cls-1" d="M3933.64,4693.36c231.99,0,319.99,82.29,319.99,301.71v196.56c0,219.42-88,301.7-319.99,301.7h-351.99c-231.99,0-319.99-83.42-319.99-301.7v-196.56c0-218.28,88-301.71,319.99-301.71h351.99ZM3435.36,5179.06c0,119.99,33.14,153.13,152,153.13h339.41c118.85,0,152-33.14,152-153.13v-171.42c0-120-33.14-153.15-152-153.15h-339.41c-118.85,0-152,33.14-152,153.15v171.42Z"/>
    <path class="cls-1" d="M4458.21,4693.36c14.86,0,20.57,3.44,26.29,14.86l332.56,614.84c3.43,5.72,7.99,8,13.71,8h5.72c5.72,0,10.28-2.29,13.72-8l330.27-614.84c5.72-11.42,11.43-14.86,26.29-14.86h147.42c18.29,0,21.71,11.43,13.72,26.29l-373.7,686.83c-37.72,69.71-73.14,86.86-121.14,86.86h-67.42c-59.42,0-94.85-17.15-131.42-86.86l-378.27-686.83c-8-14.86-4.58-26.29,13.71-26.29h148.57Z"/>
    <path class="cls-1" d="M6234.16,4693.36c16,0,25.14,8,25.14,25.15v110.85c0,16-9.14,25.14-25.14,25.14h-501.7c-117.7,0-148.56,33.14-148.56,153.15v5.72h643.4c16,0,25.14,7.99,25.14,25.14v101.71c0,17.15-9.14,25.14-25.14,25.14h-643.4v13.72c0,119.99,30.85,153.13,148.56,153.13h501.7c16,0,25.14,9.14,25.14,25.14v110.86c0,17.13-9.14,25.14-25.14,25.14h-502.84c-231.99,0-319.99-83.42-319.99-301.7v-196.56c0-218.28,88-301.71,319.99-301.71h502.84Z"/>
    <path class="cls-1" d="M7038.7,4693.36c170.28,0,245.71,76.58,245.71,234.28v66.29c0,132.57-52.57,210.28-165.7,233.14l190.84,236.56c9.14,11.43,3.43,29.72-14.86,29.72h-153.13c-18.29,0-24-4.57-31.99-14.86l-181.71-231.99h-362.27v221.71c0,17.13-7.99,25.14-25.14,25.14h-123.43c-17.13,0-25.14-8-25.14-25.14v-740.54c0-22.86,11.43-34.29,34.28-34.29h612.55ZM7003.28,5095.63c77.71,0,106.28-27.42,106.28-95.99v-48c0-69.71-29.72-98.28-106.28-98.28h-422.84c-10.28,0-14.86,3.43-14.86,12.57v229.7h437.7Z"/>
    <path class="cls-1" d="M8283.24,4693.36c17.15,0,26.29,8,26.29,25.15v749.69c0,17.13-9.14,25.14-26.29,25.14h-123.42c-16,0-25.14-8-25.14-25.14v-300.56h-534.84v300.56c0,17.13-8,25.14-25.14,25.14h-123.43c-17.13,0-25.14-8-25.14-25.14v-749.69c0-17.15,8-25.15,25.14-25.15h123.43c17.13,0,25.14,8,25.14,25.15v293.7h534.84v-293.7c0-17.15,9.14-25.15,25.14-25.15h123.42Z"/>
    <path class="cls-1" d="M8607.81,4693.36c17.15,0,25.14,8,25.14,25.15v455.98c0,121.14,34.29,156.57,152,156.57h316.56c117.71,0,150.86-35.43,150.86-156.57v-455.98c0-17.15,9.14-25.15,25.14-25.15h124.57c17.13,0,25.14,8,25.14,25.15v473.12c0,219.42-88,301.7-319.99,301.7h-327.99c-231.99,0-319.99-82.28-319.99-301.7v-473.12c0-17.15,8-25.15,25.15-25.15h123.42Z"/>
    <path class="cls-1" d="M9724.35,4693.36c17.15,0,25.14,8,25.14,25.15v455.98c0,121.14,34.29,156.57,152,156.57h316.56c117.71,0,150.86-35.43,150.86-156.57v-455.98c0-17.15,9.14-25.15,25.14-25.15h124.57c17.13,0,25.14,8,25.14,25.15v473.12c0,219.42-88,301.7-319.99,301.7h-327.99c-231.99,0-319.99-82.28-319.99-301.7v-473.12c0-17.15,8-25.15,25.15-25.15h123.42Z"/>
    <path class="cls-1" d="M11341.44,4693.36c170.28,0,245.71,76.58,245.71,234.28v66.29c0,132.57-52.57,210.28-165.7,233.14l190.84,236.56c9.14,11.43,3.43,29.72-14.86,29.72h-153.13c-18.29,0-24-4.57-31.99-14.86l-181.71-231.99h-362.27v221.71c0,17.13-7.99,25.14-25.14,25.14h-123.43c-17.13,0-25.14-8-25.14-25.14v-740.54c0-22.86,11.43-34.29,34.28-34.29h612.55ZM11306.02,5095.63c77.71,0,106.28-27.42,106.28-95.99v-48c0-69.71-29.72-98.28-106.28-98.28h-422.84c-10.28,0-14.86,3.43-14.86,12.57v229.7h437.7Z"/>
  </g>
  <rect class="cls-1" x="0" y="4188.69" width="11652.32" height="180.66"/>
</svg>